<?xml version="1.0" encoding="UTF-8" standalone="no"?>
<!DOCTYPE svg PUBLIC "-//W3C//DTD SVG 1.1//EN"
 "http://www.w3.org/Graphics/SVG/1.1/DTD/svg11.dtd">
<!-- Generated by graphviz version 13.1.0 (20250701.0955)
 -->
<!-- Title: src/driver_st7789.h Pages: 1 -->
<svg width="373pt" height="232pt"
 viewBox="0.00 0.00 373.00 232.00" xmlns="http://www.w3.org/2000/svg" xmlns:xlink="http://www.w3.org/1999/xlink">
<g id="graph0" class="graph" transform="scale(1 1) rotate(0) translate(4 228)">
<title>src/driver_st7789.h</title>
<!-- Node1 -->
<g id="Node000001" class="node">
<title>Node1</title>
<g id="a_Node000001"><a xlink:title="driver st7789 header file">
<polygon fill="#999999" stroke="#666666" points="301.75,-224 202.5,-224 202.5,-204 301.75,-204 301.75,-224"/>
<text xml:space="preserve" text-anchor="middle" x="252.12" y="-210.5" font-family="Helvetica,sans-Serif" font-size="10.00">src/driver_st7789.h</text>
</a>
</g>
</g>
<!-- Node2 -->
<g id="Node000002" class="node">
<title>Node2</title>
<g id="a_Node000002"><a xlink:href="driver__st7789__interface_8h.html" target="_top" xlink:title="driver st7789 interface header file">
<polygon fill="white" stroke="#666666" points="247.62,-168 132.62,-168 132.62,-136 247.62,-136 247.62,-168"/>
<text xml:space="preserve" text-anchor="start" x="140.62" y="-154.5" font-family="Helvetica,sans-Serif" font-size="10.00">interface/driver_st7789</text>
<text xml:space="preserve" text-anchor="middle" x="190.12" y="-142.5" font-family="Helvetica,sans-Serif" font-size="10.00">_interface.h</text>
</a>
</g>
</g>
<!-- Node1&#45;&gt;Node2 -->
<g id="edge1_Node000001_Node000002" class="edge">
<title>Node1&#45;&gt;Node2</title>
<g id="a_edge1_Node000001_Node000002"><a xlink:title=" ">
<path fill="none" stroke="#63b8ff" d="M234.19,-195.65C225.2,-186.95 214.42,-176.51 205.77,-168.14"/>
<polygon fill="#63b8ff" stroke="#63b8ff" points="231.73,-198.13 241.35,-202.57 236.6,-193.1 231.73,-198.13"/>
</a>
</g>
</g>
<!-- Node8 -->
<g id="Node000008" class="node">
<title>Node8</title>
<g id="a_Node000008"><a xlink:href="driver__st7789_8c.html" target="_top" xlink:title="driver st7789 source file">
<polygon fill="white" stroke="#666666" points="364.75,-162 265.5,-162 265.5,-142 364.75,-142 364.75,-162"/>
<text xml:space="preserve" text-anchor="middle" x="315.12" y="-148.5" font-family="Helvetica,sans-Serif" font-size="10.00">src/driver_st7789.c</text>
</a>
</g>
</g>
<!-- Node1&#45;&gt;Node8 -->
<g id="edge7_Node000001_Node000008" class="edge">
<title>Node1&#45;&gt;Node8</title>
<g id="a_edge7_Node000001_Node000008"><a xlink:title=" ">
<path fill="none" stroke="#63b8ff" d="M270.08,-195.9C281.62,-184.91 296.17,-171.05 305.56,-162.11"/>
<polygon fill="#63b8ff" stroke="#63b8ff" points="267.89,-193.15 263.06,-202.58 272.72,-198.22 267.89,-193.15"/>
</a>
</g>
</g>
<!-- Node3 -->
<g id="Node000003" class="node">
<title>Node3</title>
<g id="a_Node000003"><a xlink:href="driver__st7789__basic_8h.html" target="_top" xlink:title="driver st7789 basic header file">
<polygon fill="white" stroke="#666666" points="114.25,-100 0,-100 0,-68 114.25,-68 114.25,-100"/>
<text xml:space="preserve" text-anchor="start" x="8" y="-86.5" font-family="Helvetica,sans-Serif" font-size="10.00">example/driver_st7789</text>
<text xml:space="preserve" text-anchor="middle" x="57.12" y="-74.5" font-family="Helvetica,sans-Serif" font-size="10.00">_basic.h</text>
</a>
</g>
</g>
<!-- Node2&#45;&gt;Node3 -->
<g id="edge2_Node000002_Node000003" class="edge">
<title>Node2&#45;&gt;Node3</title>
<g id="a_edge2_Node000002_Node000003"><a xlink:title=" ">
<path fill="none" stroke="#63b8ff" d="M148.76,-130.47C129.17,-120.75 106.17,-109.34 88.11,-100.38"/>
<polygon fill="#63b8ff" stroke="#63b8ff" points="147.07,-133.54 157.59,-134.85 150.18,-127.27 147.07,-133.54"/>
</a>
</g>
</g>
<!-- Node5 -->
<g id="Node000005" class="node">
<title>Node5</title>
<g id="a_Node000005"><a xlink:href="driver__st7789__interface__template_8c.html" target="_top" xlink:title="driver st7789 interface template source file">
<polygon fill="white" stroke="#666666" points="247.62,-100 132.62,-100 132.62,-68 247.62,-68 247.62,-100"/>
<text xml:space="preserve" text-anchor="start" x="140.62" y="-86.5" font-family="Helvetica,sans-Serif" font-size="10.00">interface/driver_st7789</text>
<text xml:space="preserve" text-anchor="middle" x="190.12" y="-74.5" font-family="Helvetica,sans-Serif" font-size="10.00">_interface_template.c</text>
</a>
</g>
</g>
<!-- Node2&#45;&gt;Node5 -->
<g id="edge4_Node000002_Node000005" class="edge">
<title>Node2&#45;&gt;Node5</title>
<g id="a_edge4_Node000002_Node000005"><a xlink:title=" ">
<path fill="none" stroke="#63b8ff" d="M190.12,-124.31C190.12,-116.12 190.12,-107.38 190.12,-100.22"/>
<polygon fill="#63b8ff" stroke="#63b8ff" points="186.63,-124.18 190.13,-134.18 193.63,-124.18 186.63,-124.18"/>
</a>
</g>
</g>
<!-- Node6 -->
<g id="Node000006" class="node">
<title>Node6</title>
<g id="a_Node000006"><a xlink:href="driver__st7789__display__test_8h.html" target="_top" xlink:title="driver st7789 display test header file">
<polygon fill="white" stroke="#666666" points="360.12,-100 266.12,-100 266.12,-68 360.12,-68 360.12,-100"/>
<text xml:space="preserve" text-anchor="start" x="274.12" y="-86.5" font-family="Helvetica,sans-Serif" font-size="10.00">test/driver_st7789</text>
<text xml:space="preserve" text-anchor="middle" x="313.12" y="-74.5" font-family="Helvetica,sans-Serif" font-size="10.00">_display_test.h</text>
</a>
</g>
</g>
<!-- Node2&#45;&gt;Node6 -->
<g id="edge5_Node000002_Node000006" class="edge">
<title>Node2&#45;&gt;Node6</title>
<g id="a_edge5_Node000002_Node000006"><a xlink:title=" ">
<path fill="none" stroke="#63b8ff" d="M228.88,-130.2C246.89,-120.54 267.92,-109.26 284.47,-100.38"/>
<polygon fill="#63b8ff" stroke="#63b8ff" points="227.45,-127 220.3,-134.81 230.76,-133.17 227.45,-127"/>
</a>
</g>
</g>
<!-- Node4 -->
<g id="Node000004" class="node">
<title>Node4</title>
<g id="a_Node000004"><a xlink:href="driver__st7789__basic_8c.html" target="_top" xlink:title="driver st7789 basic source file">
<polygon fill="white" stroke="#666666" points="114.25,-32 0,-32 0,0 114.25,0 114.25,-32"/>
<text xml:space="preserve" text-anchor="start" x="8" y="-18.5" font-family="Helvetica,sans-Serif" font-size="10.00">example/driver_st7789</text>
<text xml:space="preserve" text-anchor="middle" x="57.12" y="-6.5" font-family="Helvetica,sans-Serif" font-size="10.00">_basic.c</text>
</a>
</g>
</g>
<!-- Node3&#45;&gt;Node4 -->
<g id="edge3_Node000003_Node000004" class="edge">
<title>Node3&#45;&gt;Node4</title>
<g id="a_edge3_Node000003_Node000004"><a xlink:title=" ">
<path fill="none" stroke="#63b8ff" d="M57.12,-56.31C57.12,-48.12 57.12,-39.38 57.12,-32.22"/>
<polygon fill="#63b8ff" stroke="#63b8ff" points="53.63,-56.18 57.13,-66.18 60.63,-56.18 53.63,-56.18"/>
</a>
</g>
</g>
<!-- Node7 -->
<g id="Node000007" class="node">
<title>Node7</title>
<g id="a_Node000007"><a xlink:href="driver__st7789__display__test_8c.html" target="_top" xlink:title="driver st7789 display test source file">
<polygon fill="white" stroke="#666666" points="360.12,-32 266.12,-32 266.12,0 360.12,0 360.12,-32"/>
<text xml:space="preserve" text-anchor="start" x="274.12" y="-18.5" font-family="Helvetica,sans-Serif" font-size="10.00">test/driver_st7789</text>
<text xml:space="preserve" text-anchor="middle" x="313.12" y="-6.5" font-family="Helvetica,sans-Serif" font-size="10.00">_display_test.c</text>
</a>
</g>
</g>
<!-- Node6&#45;&gt;Node7 -->
<g id="edge6_Node000006_Node000007" class="edge">
<title>Node6&#45;&gt;Node7</title>
<g id="a_edge6_Node000006_Node000007"><a xlink:title=" ">
<path fill="none" stroke="#63b8ff" d="M313.12,-56.31C313.12,-48.12 313.12,-39.38 313.12,-32.22"/>
<polygon fill="#63b8ff" stroke="#63b8ff" points="309.63,-56.18 313.13,-66.18 316.63,-56.18 309.63,-56.18"/>
</a>
</g>
</g>
</g>
</svg>
