<?xml version="1.0" encoding="UTF-8" standalone="no"?>
<!DOCTYPE svg PUBLIC "-//W3C//DTD SVG 1.1//EN"
 "http://www.w3.org/Graphics/SVG/1.1/DTD/svg11.dtd">
<!-- Generated by graphviz version 13.1.0 (20250701.0955)
 -->
<!-- Title: src/driver_st7789.c Pages: 1 -->
<svg width="214pt" height="140pt"
 viewBox="0.00 0.00 214.00 140.00" xmlns="http://www.w3.org/2000/svg" xmlns:xlink="http://www.w3.org/1999/xlink">
<g id="graph0" class="graph" transform="scale(1 1) rotate(0) translate(4 136)">
<title>src/driver_st7789.c</title>
<!-- Node1 -->
<g id="Node000001" class="node">
<title>Node1</title>
<g id="a_Node000001"><a xlink:title="driver st7789 source file">
<polygon fill="#999999" stroke="#666666" points="147,-132 47.75,-132 47.75,-112 147,-112 147,-132"/>
<text xml:space="preserve" text-anchor="middle" x="97.38" y="-118.5" font-family="Helvetica,sans-Serif" font-size="10.00">src/driver_st7789.c</text>
</a>
</g>
</g>
<!-- Node2 -->
<g id="Node000002" class="node">
<title>Node2</title>
<g id="a_Node000002"><a xlink:href="driver__st7789_8h.html" target="_top" xlink:title="driver st7789 header file">
<polygon fill="white" stroke="#666666" points="82.75,-76 0,-76 0,-56 82.75,-56 82.75,-76"/>
<text xml:space="preserve" text-anchor="middle" x="41.38" y="-62.5" font-family="Helvetica,sans-Serif" font-size="10.00">driver_st7789.h</text>
</a>
</g>
</g>
<!-- Node1&#45;&gt;Node2 -->
<g id="edge1_Node000001_Node000002" class="edge">
<title>Node1&#45;&gt;Node2</title>
<g id="a_edge1_Node000001_Node000002"><a xlink:title=" ">
<path fill="none" stroke="#63b8ff" d="M87.62,-111.59C79.75,-104.01 68.48,-93.13 59.03,-84.02"/>
<polygon fill="#63b8ff" stroke="#63b8ff" points="61.74,-81.77 52.11,-77.35 56.88,-86.81 61.74,-81.77"/>
</a>
</g>
</g>
<!-- Node6 -->
<g id="Node000006" class="node">
<title>Node6</title>
<g id="a_Node000006"><a xlink:href="driver__st7789__font_8h.html" target="_top" xlink:title="driver st7789 font header file">
<polygon fill="white" stroke="#666666" points="205.62,-76 101.12,-76 101.12,-56 205.62,-56 205.62,-76"/>
<text xml:space="preserve" text-anchor="middle" x="153.38" y="-62.5" font-family="Helvetica,sans-Serif" font-size="10.00">driver_st7789_font.h</text>
</a>
</g>
</g>
<!-- Node1&#45;&gt;Node6 -->
<g id="edge5_Node000001_Node000006" class="edge">
<title>Node1&#45;&gt;Node6</title>
<g id="a_edge5_Node000001_Node000006"><a xlink:title=" ">
<path fill="none" stroke="#63b8ff" d="M107.13,-111.59C115,-104.01 126.27,-93.13 135.72,-84.02"/>
<polygon fill="#63b8ff" stroke="#63b8ff" points="137.87,-86.81 142.64,-77.35 133.01,-81.77 137.87,-86.81"/>
</a>
</g>
</g>
<!-- Node3 -->
<g id="Node000003" class="node">
<title>Node3</title>
<g id="a_Node000003"><a xlink:title=" ">
<polygon fill="#e0e0e0" stroke="#999999" points="56.5,-20 8.25,-20 8.25,0 56.5,0 56.5,-20"/>
<text xml:space="preserve" text-anchor="middle" x="32.38" y="-6.5" font-family="Helvetica,sans-Serif" font-size="10.00">stdint.h</text>
</a>
</g>
</g>
<!-- Node2&#45;&gt;Node3 -->
<g id="edge2_Node000002_Node000003" class="edge">
<title>Node2&#45;&gt;Node3</title>
<g id="a_edge2_Node000002_Node000003"><a xlink:title=" ">
<path fill="none" stroke="#63b8ff" d="M39.81,-55.59C38.7,-48.93 37.17,-39.75 35.78,-31.44"/>
<polygon fill="#63b8ff" stroke="#63b8ff" points="39.27,-31.08 34.17,-21.79 32.37,-32.23 39.27,-31.08"/>
</a>
</g>
</g>
<!-- Node4 -->
<g id="Node000004" class="node">
<title>Node4</title>
<g id="a_Node000004"><a xlink:title=" ">
<polygon fill="#e0e0e0" stroke="#999999" points="120,-20 74.75,-20 74.75,0 120,0 120,-20"/>
<text xml:space="preserve" text-anchor="middle" x="97.38" y="-6.5" font-family="Helvetica,sans-Serif" font-size="10.00">stdio.h</text>
</a>
</g>
</g>
<!-- Node2&#45;&gt;Node4 -->
<g id="edge3_Node000002_Node000004" class="edge">
<title>Node2&#45;&gt;Node4</title>
<g id="a_edge3_Node000002_Node000004"><a xlink:title=" ">
<path fill="none" stroke="#63b8ff" d="M51.13,-55.59C59,-48.01 70.27,-37.13 79.72,-28.02"/>
<polygon fill="#63b8ff" stroke="#63b8ff" points="81.87,-30.81 86.64,-21.35 77.01,-25.77 81.87,-30.81"/>
</a>
</g>
</g>
<!-- Node5 -->
<g id="Node000005" class="node">
<title>Node5</title>
<g id="a_Node000005"><a xlink:title=" ">
<polygon fill="#e0e0e0" stroke="#999999" points="186.5,-20 138.25,-20 138.25,0 186.5,0 186.5,-20"/>
<text xml:space="preserve" text-anchor="middle" x="162.38" y="-6.5" font-family="Helvetica,sans-Serif" font-size="10.00">string.h</text>
</a>
</g>
</g>
<!-- Node2&#45;&gt;Node5 -->
<g id="edge4_Node000002_Node000005" class="edge">
<title>Node2&#45;&gt;Node5</title>
<g id="a_edge4_Node000002_Node000005"><a xlink:title=" ">
<path fill="none" stroke="#63b8ff" d="M62.45,-55.59C81.33,-47.17 109.29,-34.69 130.84,-25.07"/>
<polygon fill="#63b8ff" stroke="#63b8ff" points="132.05,-28.37 139.75,-21.1 129.19,-21.98 132.05,-28.37"/>
</a>
</g>
</g>
<!-- Node6&#45;&gt;Node3 -->
<g id="edge6_Node000006_Node000003" class="edge">
<title>Node6&#45;&gt;Node3</title>
<g id="a_edge6_Node000006_Node000003"><a xlink:title=" ">
<path fill="none" stroke="#63b8ff" d="M132.3,-55.59C113.42,-47.17 85.46,-34.69 63.91,-25.07"/>
<polygon fill="#63b8ff" stroke="#63b8ff" points="65.56,-21.98 55,-21.1 62.7,-28.37 65.56,-21.98"/>
</a>
</g>
</g>
<!-- Node6&#45;&gt;Node4 -->
<g id="edge7_Node000006_Node000004" class="edge">
<title>Node6&#45;&gt;Node4</title>
<g id="a_edge7_Node000006_Node000004"><a xlink:title=" ">
<path fill="none" stroke="#63b8ff" d="M143.62,-55.59C135.75,-48.01 124.48,-37.13 115.03,-28.02"/>
<polygon fill="#63b8ff" stroke="#63b8ff" points="117.74,-25.77 108.11,-21.35 112.88,-30.81 117.74,-25.77"/>
</a>
</g>
</g>
<!-- Node6&#45;&gt;Node5 -->
<g id="edge8_Node000006_Node000005" class="edge">
<title>Node6&#45;&gt;Node5</title>
<g id="a_edge8_Node000006_Node000005"><a xlink:title=" ">
<path fill="none" stroke="#63b8ff" d="M154.94,-55.59C156.05,-48.93 157.58,-39.75 158.97,-31.44"/>
<polygon fill="#63b8ff" stroke="#63b8ff" points="162.38,-32.23 160.58,-21.79 155.48,-31.08 162.38,-32.23"/>
</a>
</g>
</g>
</g>
</svg>
