<?xml version="1.0" encoding="UTF-8" standalone="no"?>
<!DOCTYPE svg PUBLIC "-//W3C//DTD SVG 1.1//EN"
 "http://www.w3.org/Graphics/SVG/1.1/DTD/svg11.dtd">
<!-- Generated by graphviz version 13.1.0 (20250701.0955)
 -->
<!-- Title: st7789 driver function Pages: 1 -->
<svg width="267pt" height="340pt"
 viewBox="0.00 0.00 267.00 340.00" xmlns="http://www.w3.org/2000/svg" xmlns:xlink="http://www.w3.org/1999/xlink">
<g id="graph0" class="graph" transform="scale(1 1) rotate(0) translate(4 336)">
<title>st7789 driver function</title>
<!-- Node4 -->
<g id="Node000004" class="node">
<title>Node4</title>
<g id="a_Node000004"><a xlink:href="group__st7789__advance__driver.html" target="_top" xlink:title="st7789 advance driver modules">
<polygon fill="white" stroke="#666666" points="258.12,-332 146.12,-332 146.12,-300 258.12,-300 258.12,-332"/>
<text xml:space="preserve" text-anchor="start" x="154.12" y="-318.5" font-family="Helvetica,sans-Serif" font-size="10.00">st7789 advance driver</text>
<text xml:space="preserve" text-anchor="middle" x="202.12" y="-306.5" font-family="Helvetica,sans-Serif" font-size="10.00"> function</text>
</a>
</g>
</g>
<!-- Node3 -->
<g id="Node000003" class="node">
<title>Node3</title>
<g id="a_Node000003"><a xlink:href="group__st7789__basic__driver.html" target="_top" xlink:title="st7789 basic driver modules">
<polygon fill="white" stroke="#666666" points="251.38,-282 152.88,-282 152.88,-250 251.38,-250 251.38,-282"/>
<text xml:space="preserve" text-anchor="start" x="160.88" y="-268.5" font-family="Helvetica,sans-Serif" font-size="10.00">st7789 basic driver</text>
<text xml:space="preserve" text-anchor="middle" x="202.12" y="-256.5" font-family="Helvetica,sans-Serif" font-size="10.00"> function</text>
</a>
</g>
</g>
<!-- Node1 -->
<g id="Node000001" class="node">
<title>Node1</title>
<g id="a_Node000001"><a xlink:title="st7789 driver modules">
<polygon fill="#999999" stroke="#666666" points="109.75,-176 0,-176 0,-156 109.75,-156 109.75,-176"/>
<text xml:space="preserve" text-anchor="middle" x="54.88" y="-162.5" font-family="Helvetica,sans-Serif" font-size="10.00">st7789 driver function</text>
</a>
</g>
</g>
<!-- Node1&#45;&gt;Node4 -->
<g id="edge3" class="edge">
<title>Node1&#45;&gt;Node4</title>
<path fill="none" stroke="black" d="M66.11,-186.37C80.59,-213.42 109.39,-261.25 145.75,-291 149.67,-294.21 154.06,-297.09 158.62,-299.66"/>
<polygon fill="black" stroke="black" points="69.38,-185.06 61.65,-177.81 63.17,-188.3 69.38,-185.06"/>
</g>
<!-- Node1&#45;&gt;Node3 -->
<g id="edge2" class="edge">
<title>Node1&#45;&gt;Node3</title>
<path fill="none" stroke="black" d="M74.35,-184.01C91.75,-200.31 119.06,-224.28 145.75,-241 150.58,-244.02 155.83,-246.89 161.12,-249.52"/>
<polygon fill="black" stroke="black" points="76.96,-181.66 67.3,-177.3 72.13,-186.73 76.96,-181.66"/>
</g>
<!-- Node7 -->
<g id="Node000007" class="node">
<title>Node7</title>
<g id="a_Node000007"><a xlink:href="group__st7789__example__driver.html" target="_top" xlink:title="st7789 example driver modules">
<polygon fill="white" stroke="#666666" points="258.12,-232 146.12,-232 146.12,-200 258.12,-200 258.12,-232"/>
<text xml:space="preserve" text-anchor="start" x="154.12" y="-218.5" font-family="Helvetica,sans-Serif" font-size="10.00">st7789 example driver</text>
<text xml:space="preserve" text-anchor="middle" x="202.12" y="-206.5" font-family="Helvetica,sans-Serif" font-size="10.00"> function</text>
</a>
</g>
</g>
<!-- Node1&#45;&gt;Node7 -->
<g id="edge6" class="edge">
<title>Node1&#45;&gt;Node7</title>
<path fill="none" stroke="black" d="M96.81,-180.09C114.38,-186.14 135.01,-193.24 153.28,-199.53"/>
<polygon fill="black" stroke="black" points="98.35,-176.92 87.76,-176.97 96.07,-183.54 98.35,-176.92"/>
</g>
<!-- Node5 -->
<g id="Node000005" class="node">
<title>Node5</title>
<g id="a_Node000005"><a xlink:href="group__st7789__extend__driver.html" target="_top" xlink:title="st7789 extend driver modules">
<polygon fill="white" stroke="#666666" points="254.38,-182 149.88,-182 149.88,-150 254.38,-150 254.38,-182"/>
<text xml:space="preserve" text-anchor="start" x="157.88" y="-168.5" font-family="Helvetica,sans-Serif" font-size="10.00">st7789 extend driver</text>
<text xml:space="preserve" text-anchor="middle" x="202.12" y="-156.5" font-family="Helvetica,sans-Serif" font-size="10.00"> function</text>
</a>
</g>
</g>
<!-- Node1&#45;&gt;Node5 -->
<g id="edge4" class="edge">
<title>Node1&#45;&gt;Node5</title>
<path fill="none" stroke="black" d="M121.32,-166C130.73,-166 140.31,-166 149.4,-166"/>
<polygon fill="black" stroke="black" points="121.47,-162.5 111.47,-166 121.47,-169.5 121.47,-162.5"/>
</g>
<!-- Node6 -->
<g id="Node000006" class="node">
<title>Node6</title>
<g id="a_Node000006"><a xlink:href="group__st7789__interface__driver.html" target="_top" xlink:title="st7789 interface driver modules">
<polygon fill="white" stroke="#666666" points="258.5,-132 145.75,-132 145.75,-100 258.5,-100 258.5,-132"/>
<text xml:space="preserve" text-anchor="start" x="153.75" y="-118.5" font-family="Helvetica,sans-Serif" font-size="10.00">st7789 interface driver</text>
<text xml:space="preserve" text-anchor="middle" x="202.12" y="-106.5" font-family="Helvetica,sans-Serif" font-size="10.00"> function</text>
</a>
</g>
</g>
<!-- Node1&#45;&gt;Node6 -->
<g id="edge5" class="edge">
<title>Node1&#45;&gt;Node6</title>
<path fill="none" stroke="black" d="M96.81,-151.91C114.38,-145.86 135.01,-138.76 153.28,-132.47"/>
<polygon fill="black" stroke="black" points="96.07,-148.46 87.76,-155.03 98.35,-155.08 96.07,-148.46"/>
</g>
<!-- Node2 -->
<g id="Node000002" class="node">
<title>Node2</title>
<g id="a_Node000002"><a xlink:href="group__st7789__link__driver.html" target="_top" xlink:title="st7789 link driver modules">
<polygon fill="white" stroke="#666666" points="247.25,-82 157,-82 157,-50 247.25,-50 247.25,-82"/>
<text xml:space="preserve" text-anchor="start" x="165" y="-68.5" font-family="Helvetica,sans-Serif" font-size="10.00">st7789 link driver</text>
<text xml:space="preserve" text-anchor="middle" x="202.12" y="-56.5" font-family="Helvetica,sans-Serif" font-size="10.00"> function</text>
</a>
</g>
</g>
<!-- Node1&#45;&gt;Node2 -->
<g id="edge1" class="edge">
<title>Node1&#45;&gt;Node2</title>
<path fill="none" stroke="black" d="M74.35,-147.99C91.75,-131.69 119.06,-107.72 145.75,-91 150.58,-87.98 155.83,-85.11 161.12,-82.48"/>
<polygon fill="black" stroke="black" points="72.13,-145.27 67.3,-154.7 76.96,-150.34 72.13,-145.27"/>
</g>
<!-- Node8 -->
<g id="Node000008" class="node">
<title>Node8</title>
<g id="a_Node000008"><a xlink:href="group__st7789__test__driver.html" target="_top" xlink:title="st7789 test driver modules">
<polygon fill="white" stroke="#666666" points="248,-32 156.25,-32 156.25,0 248,0 248,-32"/>
<text xml:space="preserve" text-anchor="start" x="164.25" y="-18.5" font-family="Helvetica,sans-Serif" font-size="10.00">st7789 test driver</text>
<text xml:space="preserve" text-anchor="middle" x="202.12" y="-6.5" font-family="Helvetica,sans-Serif" font-size="10.00"> function</text>
</a>
</g>
</g>
<!-- Node1&#45;&gt;Node8 -->
<g id="edge7" class="edge">
<title>Node1&#45;&gt;Node8</title>
<path fill="none" stroke="black" d="M66.11,-145.63C80.59,-118.58 109.39,-70.75 145.75,-41 149.67,-37.79 154.06,-34.91 158.62,-32.34"/>
<polygon fill="black" stroke="black" points="63.17,-143.7 61.65,-154.19 69.38,-146.94 63.17,-143.7"/>
</g>
</g>
</svg>
